<mxfile host="app.diagrams.net" modified="2023-06-05T12:21:22.671Z" agent="Mozilla/5.0 (Macintosh; Intel Mac OS X 10_15_7) AppleWebKit/537.36 (KHTML, like Gecko) Chrome/113.0.0.0 Safari/537.36" etag="1UcCCwAupJsLhzaD2edl" version="21.3.5" type="device">
  <diagram name="Page-1" id="2YBvvXClWsGukQMizWep">
    <mxGraphModel dx="954" dy="620" grid="1" gridSize="10" guides="1" tooltips="1" connect="1" arrows="1" fold="1" page="1" pageScale="1" pageWidth="850" pageHeight="1100" math="0" shadow="0">
      <root>
        <mxCell id="0" />
        <mxCell id="1" parent="0" />
        <mxCell id="aM9ryv3xv72pqoxQDRHE-1" value=":Robot" style="shape=umlLifeline;perimeter=lifelinePerimeter;whiteSpace=wrap;html=1;container=0;dropTarget=0;collapsible=0;recursiveResize=0;outlineConnect=0;portConstraint=eastwest;newEdgeStyle={&quot;edgeStyle&quot;:&quot;elbowEdgeStyle&quot;,&quot;elbow&quot;:&quot;vertical&quot;,&quot;curved&quot;:0,&quot;rounded&quot;:0};" parent="1" vertex="1">
          <mxGeometry x="40" y="40" width="100" height="460" as="geometry" />
        </mxCell>
        <mxCell id="aM9ryv3xv72pqoxQDRHE-2" value="" style="html=1;points=[];perimeter=orthogonalPerimeter;outlineConnect=0;targetShapes=umlLifeline;portConstraint=eastwest;newEdgeStyle={&quot;edgeStyle&quot;:&quot;elbowEdgeStyle&quot;,&quot;elbow&quot;:&quot;vertical&quot;,&quot;curved&quot;:0,&quot;rounded&quot;:0};" parent="aM9ryv3xv72pqoxQDRHE-1" vertex="1">
          <mxGeometry x="45" y="70" width="10" height="340" as="geometry" />
        </mxCell>
        <mxCell id="aM9ryv3xv72pqoxQDRHE-3" value="start" style="html=1;verticalAlign=bottom;startArrow=oval;endArrow=block;startSize=8;edgeStyle=elbowEdgeStyle;elbow=vertical;curved=0;rounded=0;" parent="aM9ryv3xv72pqoxQDRHE-1" target="aM9ryv3xv72pqoxQDRHE-2" edge="1">
          <mxGeometry relative="1" as="geometry">
            <mxPoint x="-15" y="70" as="sourcePoint" />
          </mxGeometry>
        </mxCell>
        <mxCell id="aM9ryv3xv72pqoxQDRHE-5" value=":RobotCommunication" style="shape=umlLifeline;perimeter=lifelinePerimeter;whiteSpace=wrap;html=1;container=0;dropTarget=0;collapsible=0;recursiveResize=0;outlineConnect=0;portConstraint=eastwest;newEdgeStyle={&quot;edgeStyle&quot;:&quot;elbowEdgeStyle&quot;,&quot;elbow&quot;:&quot;vertical&quot;,&quot;curved&quot;:0,&quot;rounded&quot;:0};" parent="1" vertex="1">
          <mxGeometry x="150" y="40" width="140" height="420" as="geometry" />
        </mxCell>
        <mxCell id="-zgr26NCYD5-frDkxSR6-9" value="" style="html=1;points=[];perimeter=orthogonalPerimeter;outlineConnect=0;targetShapes=umlLifeline;portConstraint=eastwest;newEdgeStyle={&quot;edgeStyle&quot;:&quot;elbowEdgeStyle&quot;,&quot;elbow&quot;:&quot;vertical&quot;,&quot;curved&quot;:0,&quot;rounded&quot;:0};" vertex="1" parent="aM9ryv3xv72pqoxQDRHE-5">
          <mxGeometry x="65" y="110" width="10" height="30" as="geometry" />
        </mxCell>
        <mxCell id="-zgr26NCYD5-frDkxSR6-21" value="" style="html=1;points=[];perimeter=orthogonalPerimeter;outlineConnect=0;targetShapes=umlLifeline;portConstraint=eastwest;newEdgeStyle={&quot;edgeStyle&quot;:&quot;elbowEdgeStyle&quot;,&quot;elbow&quot;:&quot;vertical&quot;,&quot;curved&quot;:0,&quot;rounded&quot;:0};" vertex="1" parent="aM9ryv3xv72pqoxQDRHE-5">
          <mxGeometry x="65" y="280" width="10" height="30" as="geometry" />
        </mxCell>
        <mxCell id="-zgr26NCYD5-frDkxSR6-1" value=":RobotNetwork" style="shape=umlLifeline;perimeter=lifelinePerimeter;whiteSpace=wrap;html=1;container=0;dropTarget=0;collapsible=0;recursiveResize=0;outlineConnect=0;portConstraint=eastwest;newEdgeStyle={&quot;edgeStyle&quot;:&quot;elbowEdgeStyle&quot;,&quot;elbow&quot;:&quot;vertical&quot;,&quot;curved&quot;:0,&quot;rounded&quot;:0};" vertex="1" parent="1">
          <mxGeometry x="300" y="200" width="100" height="300" as="geometry" />
        </mxCell>
        <mxCell id="-zgr26NCYD5-frDkxSR6-14" value="" style="html=1;points=[];perimeter=orthogonalPerimeter;outlineConnect=0;targetShapes=umlLifeline;portConstraint=eastwest;newEdgeStyle={&quot;edgeStyle&quot;:&quot;elbowEdgeStyle&quot;,&quot;elbow&quot;:&quot;vertical&quot;,&quot;curved&quot;:0,&quot;rounded&quot;:0};" vertex="1" parent="-zgr26NCYD5-frDkxSR6-1">
          <mxGeometry x="45" y="90" width="10" height="20" as="geometry" />
        </mxCell>
        <mxCell id="-zgr26NCYD5-frDkxSR6-16" value="" style="html=1;points=[];perimeter=orthogonalPerimeter;outlineConnect=0;targetShapes=umlLifeline;portConstraint=eastwest;newEdgeStyle={&quot;edgeStyle&quot;:&quot;elbowEdgeStyle&quot;,&quot;elbow&quot;:&quot;vertical&quot;,&quot;curved&quot;:0,&quot;rounded&quot;:0};" vertex="1" parent="-zgr26NCYD5-frDkxSR6-1">
          <mxGeometry x="45" y="120" width="10" height="40" as="geometry" />
        </mxCell>
        <mxCell id="-zgr26NCYD5-frDkxSR6-17" value="welcomeAll" style="html=1;align=left;spacingLeft=2;endArrow=block;rounded=0;edgeStyle=orthogonalEdgeStyle;curved=0;rounded=0;" edge="1" target="-zgr26NCYD5-frDkxSR6-16" parent="-zgr26NCYD5-frDkxSR6-1" source="-zgr26NCYD5-frDkxSR6-14">
          <mxGeometry relative="1" as="geometry">
            <mxPoint x="55" y="100" as="sourcePoint" />
            <Array as="points">
              <mxPoint x="85" y="90" />
              <mxPoint x="85" y="130" />
            </Array>
          </mxGeometry>
        </mxCell>
        <mxCell id="-zgr26NCYD5-frDkxSR6-2" value=":RobotMaintenance" style="shape=umlLifeline;perimeter=lifelinePerimeter;whiteSpace=wrap;html=1;container=0;dropTarget=0;collapsible=0;recursiveResize=0;outlineConnect=0;portConstraint=eastwest;newEdgeStyle={&quot;edgeStyle&quot;:&quot;elbowEdgeStyle&quot;,&quot;elbow&quot;:&quot;vertical&quot;,&quot;curved&quot;:0,&quot;rounded&quot;:0};" vertex="1" parent="1">
          <mxGeometry x="490" y="40" width="120" height="460" as="geometry" />
        </mxCell>
        <mxCell id="-zgr26NCYD5-frDkxSR6-29" value="" style="html=1;points=[];perimeter=orthogonalPerimeter;outlineConnect=0;targetShapes=umlLifeline;portConstraint=eastwest;newEdgeStyle={&quot;edgeStyle&quot;:&quot;elbowEdgeStyle&quot;,&quot;elbow&quot;:&quot;vertical&quot;,&quot;curved&quot;:0,&quot;rounded&quot;:0};" vertex="1" parent="-zgr26NCYD5-frDkxSR6-2">
          <mxGeometry x="55" y="360" width="10" height="20" as="geometry" />
        </mxCell>
        <mxCell id="-zgr26NCYD5-frDkxSR6-30" value="" style="html=1;points=[];perimeter=orthogonalPerimeter;outlineConnect=0;targetShapes=umlLifeline;portConstraint=eastwest;newEdgeStyle={&quot;edgeStyle&quot;:&quot;elbowEdgeStyle&quot;,&quot;elbow&quot;:&quot;vertical&quot;,&quot;curved&quot;:0,&quot;rounded&quot;:0};" vertex="1" parent="-zgr26NCYD5-frDkxSR6-2">
          <mxGeometry x="55" y="400" width="10" height="40" as="geometry" />
        </mxCell>
        <mxCell id="-zgr26NCYD5-frDkxSR6-31" value="start&lt;br&gt;maintenance&lt;br&gt;thread" style="html=1;align=left;spacingLeft=2;endArrow=block;rounded=0;edgeStyle=orthogonalEdgeStyle;curved=0;rounded=0;" edge="1" target="-zgr26NCYD5-frDkxSR6-30" parent="-zgr26NCYD5-frDkxSR6-2" source="-zgr26NCYD5-frDkxSR6-29">
          <mxGeometry relative="1" as="geometry">
            <mxPoint x="60" y="380" as="sourcePoint" />
            <Array as="points">
              <mxPoint x="90" y="370" />
              <mxPoint x="90" y="410" />
            </Array>
          </mxGeometry>
        </mxCell>
        <mxCell id="-zgr26NCYD5-frDkxSR6-3" value=":RobotSensor" style="shape=umlLifeline;perimeter=lifelinePerimeter;whiteSpace=wrap;html=1;container=0;dropTarget=0;collapsible=0;recursiveResize=0;outlineConnect=0;portConstraint=eastwest;newEdgeStyle={&quot;edgeStyle&quot;:&quot;elbowEdgeStyle&quot;,&quot;elbow&quot;:&quot;vertical&quot;,&quot;curved&quot;:0,&quot;rounded&quot;:0};" vertex="1" parent="1">
          <mxGeometry x="620" y="40" width="90" height="460" as="geometry" />
        </mxCell>
        <mxCell id="-zgr26NCYD5-frDkxSR6-25" value="" style="html=1;points=[];perimeter=orthogonalPerimeter;outlineConnect=0;targetShapes=umlLifeline;portConstraint=eastwest;newEdgeStyle={&quot;edgeStyle&quot;:&quot;elbowEdgeStyle&quot;,&quot;elbow&quot;:&quot;vertical&quot;,&quot;curved&quot;:0,&quot;rounded&quot;:0};" vertex="1" parent="-zgr26NCYD5-frDkxSR6-3">
          <mxGeometry x="40" y="330" width="10" height="20" as="geometry" />
        </mxCell>
        <mxCell id="-zgr26NCYD5-frDkxSR6-26" value="" style="html=1;points=[];perimeter=orthogonalPerimeter;outlineConnect=0;targetShapes=umlLifeline;portConstraint=eastwest;newEdgeStyle={&quot;edgeStyle&quot;:&quot;elbowEdgeStyle&quot;,&quot;elbow&quot;:&quot;vertical&quot;,&quot;curved&quot;:0,&quot;rounded&quot;:0};" vertex="1" parent="-zgr26NCYD5-frDkxSR6-3">
          <mxGeometry x="40" y="360" width="10" height="40" as="geometry" />
        </mxCell>
        <mxCell id="-zgr26NCYD5-frDkxSR6-27" value="start pm10 thread" style="html=1;align=left;spacingLeft=2;endArrow=block;rounded=0;edgeStyle=orthogonalEdgeStyle;curved=0;rounded=0;" edge="1" target="-zgr26NCYD5-frDkxSR6-26" parent="-zgr26NCYD5-frDkxSR6-3" source="-zgr26NCYD5-frDkxSR6-25">
          <mxGeometry relative="1" as="geometry">
            <mxPoint x="50" y="340" as="sourcePoint" />
            <Array as="points">
              <mxPoint x="75" y="340" />
              <mxPoint x="75" y="370" />
            </Array>
          </mxGeometry>
        </mxCell>
        <mxCell id="-zgr26NCYD5-frDkxSR6-4" value=":RobotInput" style="shape=umlLifeline;perimeter=lifelinePerimeter;whiteSpace=wrap;html=1;container=0;dropTarget=0;collapsible=0;recursiveResize=0;outlineConnect=0;portConstraint=eastwest;newEdgeStyle={&quot;edgeStyle&quot;:&quot;elbowEdgeStyle&quot;,&quot;elbow&quot;:&quot;vertical&quot;,&quot;curved&quot;:0,&quot;rounded&quot;:0};" vertex="1" parent="1">
          <mxGeometry x="720" y="40" width="120" height="300" as="geometry" />
        </mxCell>
        <mxCell id="-zgr26NCYD5-frDkxSR6-6" value="" style="html=1;points=[];perimeter=orthogonalPerimeter;outlineConnect=0;targetShapes=umlLifeline;portConstraint=eastwest;newEdgeStyle={&quot;edgeStyle&quot;:&quot;elbowEdgeStyle&quot;,&quot;elbow&quot;:&quot;vertical&quot;,&quot;curved&quot;:0,&quot;rounded&quot;:0};" vertex="1" parent="-zgr26NCYD5-frDkxSR6-4">
          <mxGeometry x="55" y="70" width="10" height="200" as="geometry" />
        </mxCell>
        <mxCell id="-zgr26NCYD5-frDkxSR6-5" value="start" style="html=1;verticalAlign=bottom;endArrow=block;edgeStyle=elbowEdgeStyle;elbow=vertical;curved=0;rounded=0;" edge="1" parent="1" source="aM9ryv3xv72pqoxQDRHE-2" target="-zgr26NCYD5-frDkxSR6-6">
          <mxGeometry width="80" relative="1" as="geometry">
            <mxPoint x="380" y="270" as="sourcePoint" />
            <mxPoint x="460" y="270" as="targetPoint" />
            <Array as="points">
              <mxPoint x="440" y="110" />
            </Array>
          </mxGeometry>
        </mxCell>
        <mxCell id="-zgr26NCYD5-frDkxSR6-7" value="init ( id, ipAddr, port )" style="html=1;verticalAlign=bottom;endArrow=open;dashed=1;endSize=8;edgeStyle=elbowEdgeStyle;elbow=vertical;curved=0;rounded=0;" edge="1" parent="1" source="-zgr26NCYD5-frDkxSR6-6" target="aM9ryv3xv72pqoxQDRHE-2">
          <mxGeometry relative="1" as="geometry">
            <mxPoint x="460" y="270" as="sourcePoint" />
            <mxPoint x="380" y="270" as="targetPoint" />
            <Array as="points">
              <mxPoint x="550" y="130" />
            </Array>
          </mxGeometry>
        </mxCell>
        <mxCell id="-zgr26NCYD5-frDkxSR6-8" value="start" style="html=1;verticalAlign=bottom;endArrow=block;edgeStyle=elbowEdgeStyle;elbow=horizontal;curved=0;rounded=0;" edge="1" parent="1" source="aM9ryv3xv72pqoxQDRHE-2" target="-zgr26NCYD5-frDkxSR6-9">
          <mxGeometry width="80" relative="1" as="geometry">
            <mxPoint x="380" y="270" as="sourcePoint" />
            <mxPoint x="460" y="270" as="targetPoint" />
            <Array as="points">
              <mxPoint x="155" y="150" />
            </Array>
          </mxGeometry>
        </mxCell>
        <mxCell id="-zgr26NCYD5-frDkxSR6-10" value="START ROBOT" style="text;html=1;strokeColor=none;fillColor=none;align=center;verticalAlign=middle;whiteSpace=wrap;rounded=0;" vertex="1" parent="1">
          <mxGeometry width="120" height="30" as="geometry" />
        </mxCell>
        <mxCell id="-zgr26NCYD5-frDkxSR6-11" value="REST to admin&lt;br&gt;start MQTT&lt;br&gt;start gRPC" style="text;html=1;strokeColor=none;fillColor=none;align=center;verticalAlign=middle;whiteSpace=wrap;rounded=0;" vertex="1" parent="1">
          <mxGeometry x="230" y="140" width="120" height="40" as="geometry" />
        </mxCell>
        <mxCell id="-zgr26NCYD5-frDkxSR6-12" value="onJoinedNetwork ( InsertRobotBean )" style="html=1;verticalAlign=bottom;endArrow=open;dashed=1;endSize=8;edgeStyle=elbowEdgeStyle;elbow=vertical;curved=0;rounded=0;" edge="1" parent="1" source="-zgr26NCYD5-frDkxSR6-9" target="aM9ryv3xv72pqoxQDRHE-2">
          <mxGeometry relative="1" as="geometry">
            <mxPoint x="460" y="270" as="sourcePoint" />
            <mxPoint x="380" y="270" as="targetPoint" />
            <Array as="points">
              <mxPoint x="170" y="170" />
            </Array>
          </mxGeometry>
        </mxCell>
        <mxCell id="-zgr26NCYD5-frDkxSR6-13" value="start" style="html=1;verticalAlign=bottom;endArrow=block;edgeStyle=elbowEdgeStyle;elbow=vertical;curved=0;rounded=0;" edge="1" parent="1" source="aM9ryv3xv72pqoxQDRHE-2" target="-zgr26NCYD5-frDkxSR6-14">
          <mxGeometry width="80" relative="1" as="geometry">
            <mxPoint x="380" y="300" as="sourcePoint" />
            <mxPoint x="460" y="300" as="targetPoint" />
            <Array as="points">
              <mxPoint x="300" y="290" />
              <mxPoint x="260" y="280" />
            </Array>
          </mxGeometry>
        </mxCell>
        <mxCell id="-zgr26NCYD5-frDkxSR6-15" value="new RobotNetwork ( Position, List&amp;lt;RobotBean&amp;gt; )" style="html=1;verticalAlign=bottom;endArrow=block;edgeStyle=elbowEdgeStyle;elbow=vertical;curved=0;rounded=0;" edge="1" parent="1" source="aM9ryv3xv72pqoxQDRHE-2" target="-zgr26NCYD5-frDkxSR6-1">
          <mxGeometry width="80" relative="1" as="geometry">
            <mxPoint x="380" y="300" as="sourcePoint" />
            <mxPoint x="460" y="300" as="targetPoint" />
            <Array as="points">
              <mxPoint x="220" y="260" />
            </Array>
          </mxGeometry>
        </mxCell>
        <mxCell id="-zgr26NCYD5-frDkxSR6-18" value=":RobotNetworkResources" style="shape=umlLifeline;perimeter=lifelinePerimeter;whiteSpace=wrap;html=1;container=0;dropTarget=0;collapsible=0;recursiveResize=0;outlineConnect=0;portConstraint=eastwest;newEdgeStyle={&quot;edgeStyle&quot;:&quot;elbowEdgeStyle&quot;,&quot;elbow&quot;:&quot;vertical&quot;,&quot;curved&quot;:0,&quot;rounded&quot;:0};" vertex="1" parent="1">
          <mxGeometry x="410" y="200" width="150" height="300" as="geometry" />
        </mxCell>
        <mxCell id="-zgr26NCYD5-frDkxSR6-19" value="new RobotNetworkResources ( List&amp;lt;RobotBean&amp;gt; )" style="html=1;verticalAlign=bottom;endArrow=block;edgeStyle=elbowEdgeStyle;elbow=vertical;curved=0;rounded=0;" edge="1" parent="1" source="-zgr26NCYD5-frDkxSR6-1" target="-zgr26NCYD5-frDkxSR6-18">
          <mxGeometry width="80" relative="1" as="geometry">
            <mxPoint x="380" y="270" as="sourcePoint" />
            <mxPoint x="460" y="270" as="targetPoint" />
            <Array as="points">
              <mxPoint x="405" y="280" />
            </Array>
          </mxGeometry>
        </mxCell>
        <mxCell id="-zgr26NCYD5-frDkxSR6-20" value="sendMessageToRobot" style="html=1;verticalAlign=bottom;endArrow=block;edgeStyle=elbowEdgeStyle;elbow=vertical;curved=0;rounded=0;" edge="1" parent="1" source="-zgr26NCYD5-frDkxSR6-16" target="-zgr26NCYD5-frDkxSR6-21">
          <mxGeometry width="80" relative="1" as="geometry">
            <mxPoint x="380" y="300" as="sourcePoint" />
            <mxPoint x="460" y="300" as="targetPoint" />
            <Array as="points">
              <mxPoint x="290" y="320" />
            </Array>
          </mxGeometry>
        </mxCell>
        <mxCell id="-zgr26NCYD5-frDkxSR6-24" value="start" style="html=1;verticalAlign=bottom;endArrow=block;edgeStyle=elbowEdgeStyle;elbow=vertical;curved=0;rounded=0;" edge="1" parent="1" source="aM9ryv3xv72pqoxQDRHE-2" target="-zgr26NCYD5-frDkxSR6-25">
          <mxGeometry width="80" relative="1" as="geometry">
            <mxPoint x="380" y="300" as="sourcePoint" />
            <mxPoint x="460" y="300" as="targetPoint" />
            <Array as="points">
              <mxPoint x="380" y="370" />
            </Array>
          </mxGeometry>
        </mxCell>
        <mxCell id="-zgr26NCYD5-frDkxSR6-28" value="start" style="html=1;verticalAlign=bottom;endArrow=block;edgeStyle=elbowEdgeStyle;elbow=vertical;curved=0;rounded=0;" edge="1" parent="1" source="aM9ryv3xv72pqoxQDRHE-2" target="-zgr26NCYD5-frDkxSR6-29">
          <mxGeometry width="80" relative="1" as="geometry">
            <mxPoint x="380" y="300" as="sourcePoint" />
            <mxPoint x="460" y="300" as="targetPoint" />
            <Array as="points">
              <mxPoint x="320" y="400" />
            </Array>
          </mxGeometry>
        </mxCell>
        <mxCell id="-zgr26NCYD5-frDkxSR6-32" value=":RetryThread" style="shape=umlLifeline;perimeter=lifelinePerimeter;whiteSpace=wrap;html=1;container=0;dropTarget=0;collapsible=0;recursiveResize=0;outlineConnect=0;portConstraint=eastwest;newEdgeStyle={&quot;edgeStyle&quot;:&quot;elbowEdgeStyle&quot;,&quot;elbow&quot;:&quot;vertical&quot;,&quot;curved&quot;:0,&quot;rounded&quot;:0};" vertex="1" parent="1">
          <mxGeometry x="100" y="760" width="100" height="480" as="geometry" />
        </mxCell>
        <mxCell id="-zgr26NCYD5-frDkxSR6-101" value="" style="html=1;points=[];perimeter=orthogonalPerimeter;outlineConnect=0;targetShapes=umlLifeline;portConstraint=eastwest;newEdgeStyle={&quot;edgeStyle&quot;:&quot;elbowEdgeStyle&quot;,&quot;elbow&quot;:&quot;vertical&quot;,&quot;curved&quot;:0,&quot;rounded&quot;:0};" vertex="1" parent="-zgr26NCYD5-frDkxSR6-32">
          <mxGeometry x="45" y="60" width="10" height="400" as="geometry" />
        </mxCell>
        <mxCell id="-zgr26NCYD5-frDkxSR6-35" value=":RobotCommunication" style="shape=umlLifeline;perimeter=lifelinePerimeter;whiteSpace=wrap;html=1;container=0;dropTarget=0;collapsible=0;recursiveResize=0;outlineConnect=0;portConstraint=eastwest;newEdgeStyle={&quot;edgeStyle&quot;:&quot;elbowEdgeStyle&quot;,&quot;elbow&quot;:&quot;vertical&quot;,&quot;curved&quot;:0,&quot;rounded&quot;:0};" vertex="1" parent="1">
          <mxGeometry x="150" y="540" width="140" height="1020" as="geometry" />
        </mxCell>
        <mxCell id="-zgr26NCYD5-frDkxSR6-79" value="" style="html=1;points=[];perimeter=orthogonalPerimeter;outlineConnect=0;targetShapes=umlLifeline;portConstraint=eastwest;newEdgeStyle={&quot;edgeStyle&quot;:&quot;elbowEdgeStyle&quot;,&quot;elbow&quot;:&quot;vertical&quot;,&quot;curved&quot;:0,&quot;rounded&quot;:0};" vertex="1" parent="-zgr26NCYD5-frDkxSR6-35">
          <mxGeometry x="65" y="150" width="10" height="20" as="geometry" />
        </mxCell>
        <mxCell id="-zgr26NCYD5-frDkxSR6-119" value="" style="shape=umlDestroy;whiteSpace=wrap;html=1;strokeWidth=3;targetShapes=umlLifeline;" vertex="1" parent="-zgr26NCYD5-frDkxSR6-35">
          <mxGeometry x="-15" y="668" width="30" height="30" as="geometry" />
        </mxCell>
        <mxCell id="-zgr26NCYD5-frDkxSR6-38" value=":RobotNetwork" style="shape=umlLifeline;perimeter=lifelinePerimeter;whiteSpace=wrap;html=1;container=0;dropTarget=0;collapsible=0;recursiveResize=0;outlineConnect=0;portConstraint=eastwest;newEdgeStyle={&quot;edgeStyle&quot;:&quot;elbowEdgeStyle&quot;,&quot;elbow&quot;:&quot;vertical&quot;,&quot;curved&quot;:0,&quot;rounded&quot;:0};" vertex="1" parent="1">
          <mxGeometry x="300" y="540" width="100" height="1010" as="geometry" />
        </mxCell>
        <mxCell id="-zgr26NCYD5-frDkxSR6-66" value="" style="html=1;points=[];perimeter=orthogonalPerimeter;outlineConnect=0;targetShapes=umlLifeline;portConstraint=eastwest;newEdgeStyle={&quot;edgeStyle&quot;:&quot;elbowEdgeStyle&quot;,&quot;elbow&quot;:&quot;vertical&quot;,&quot;curved&quot;:0,&quot;rounded&quot;:0};" vertex="1" parent="-zgr26NCYD5-frDkxSR6-38">
          <mxGeometry x="45" y="100" width="10" height="100" as="geometry" />
        </mxCell>
        <mxCell id="-zgr26NCYD5-frDkxSR6-71" value="" style="html=1;points=[];perimeter=orthogonalPerimeter;outlineConnect=0;targetShapes=umlLifeline;portConstraint=eastwest;newEdgeStyle={&quot;edgeStyle&quot;:&quot;elbowEdgeStyle&quot;,&quot;elbow&quot;:&quot;vertical&quot;,&quot;curved&quot;:0,&quot;rounded&quot;:0};" vertex="1" parent="-zgr26NCYD5-frDkxSR6-38">
          <mxGeometry x="45" y="210" width="10" height="30" as="geometry" />
        </mxCell>
        <mxCell id="-zgr26NCYD5-frDkxSR6-82" value="" style="html=1;points=[];perimeter=orthogonalPerimeter;outlineConnect=0;targetShapes=umlLifeline;portConstraint=eastwest;newEdgeStyle={&quot;edgeStyle&quot;:&quot;elbowEdgeStyle&quot;,&quot;elbow&quot;:&quot;vertical&quot;,&quot;curved&quot;:0,&quot;rounded&quot;:0};" vertex="1" parent="-zgr26NCYD5-frDkxSR6-38">
          <mxGeometry x="45" y="310" width="10" height="20" as="geometry" />
        </mxCell>
        <mxCell id="-zgr26NCYD5-frDkxSR6-83" value="" style="html=1;points=[];perimeter=orthogonalPerimeter;outlineConnect=0;targetShapes=umlLifeline;portConstraint=eastwest;newEdgeStyle={&quot;edgeStyle&quot;:&quot;elbowEdgeStyle&quot;,&quot;elbow&quot;:&quot;vertical&quot;,&quot;curved&quot;:0,&quot;rounded&quot;:0};" vertex="1" parent="-zgr26NCYD5-frDkxSR6-38">
          <mxGeometry x="45" y="345" width="10" height="75" as="geometry" />
        </mxCell>
        <mxCell id="-zgr26NCYD5-frDkxSR6-84" value="robotAskedForMaint.&lt;br&gt;IF it&#39;s me, OK&lt;br&gt;IF state is OUT, OK&lt;br&gt;IF state is ASK, &lt;br&gt;&amp;nbsp; &amp;nbsp; IF myTs &amp;gt; msgTs, OK&lt;br&gt;&amp;nbsp; &amp;nbsp; ELSE, addToQueue&lt;br&gt;IF state is IN, addToQueue" style="html=1;align=left;spacingLeft=2;endArrow=block;rounded=0;edgeStyle=orthogonalEdgeStyle;curved=0;rounded=0;" edge="1" target="-zgr26NCYD5-frDkxSR6-83" parent="-zgr26NCYD5-frDkxSR6-38" source="-zgr26NCYD5-frDkxSR6-82">
          <mxGeometry relative="1" as="geometry">
            <mxPoint x="190" y="370" as="sourcePoint" />
            <Array as="points">
              <mxPoint x="80" y="320" />
              <mxPoint x="80" y="355" />
            </Array>
          </mxGeometry>
        </mxCell>
        <mxCell id="-zgr26NCYD5-frDkxSR6-90" value="" style="html=1;points=[];perimeter=orthogonalPerimeter;outlineConnect=0;targetShapes=umlLifeline;portConstraint=eastwest;newEdgeStyle={&quot;edgeStyle&quot;:&quot;elbowEdgeStyle&quot;,&quot;elbow&quot;:&quot;vertical&quot;,&quot;curved&quot;:0,&quot;rounded&quot;:0};" vertex="1" parent="-zgr26NCYD5-frDkxSR6-38">
          <mxGeometry x="45" y="558" width="10" height="20" as="geometry" />
        </mxCell>
        <mxCell id="-zgr26NCYD5-frDkxSR6-92" value="" style="html=1;points=[];perimeter=orthogonalPerimeter;outlineConnect=0;targetShapes=umlLifeline;portConstraint=eastwest;newEdgeStyle={&quot;edgeStyle&quot;:&quot;elbowEdgeStyle&quot;,&quot;elbow&quot;:&quot;vertical&quot;,&quot;curved&quot;:0,&quot;rounded&quot;:0};" vertex="1" parent="-zgr26NCYD5-frDkxSR6-38">
          <mxGeometry x="45" y="588" width="10" height="60" as="geometry" />
        </mxCell>
        <mxCell id="-zgr26NCYD5-frDkxSR6-91" value="robotOked&lt;br&gt;IF state not ASK, return&lt;br&gt;IF robot not in OKs, add" style="html=1;align=left;spacingLeft=2;endArrow=block;rounded=0;edgeStyle=orthogonalEdgeStyle;curved=0;rounded=0;" edge="1" parent="-zgr26NCYD5-frDkxSR6-38" source="-zgr26NCYD5-frDkxSR6-90" target="-zgr26NCYD5-frDkxSR6-92">
          <mxGeometry relative="1" as="geometry">
            <mxPoint x="205" y="488" as="sourcePoint" />
            <Array as="points">
              <mxPoint x="90" y="558" />
              <mxPoint x="90" y="588" />
            </Array>
            <mxPoint x="205" y="518" as="targetPoint" />
          </mxGeometry>
        </mxCell>
        <mxCell id="-zgr26NCYD5-frDkxSR6-93" value="" style="html=1;points=[];perimeter=orthogonalPerimeter;outlineConnect=0;targetShapes=umlLifeline;portConstraint=eastwest;newEdgeStyle={&quot;edgeStyle&quot;:&quot;elbowEdgeStyle&quot;,&quot;elbow&quot;:&quot;vertical&quot;,&quot;curved&quot;:0,&quot;rounded&quot;:0};" vertex="1" parent="-zgr26NCYD5-frDkxSR6-38">
          <mxGeometry x="45" y="668" width="10" height="60" as="geometry" />
        </mxCell>
        <mxCell id="-zgr26NCYD5-frDkxSR6-94" value="checkAndRunMaint." style="html=1;align=left;spacingLeft=2;endArrow=block;rounded=0;edgeStyle=orthogonalEdgeStyle;curved=0;rounded=0;" edge="1" target="-zgr26NCYD5-frDkxSR6-93" parent="-zgr26NCYD5-frDkxSR6-38" source="-zgr26NCYD5-frDkxSR6-92">
          <mxGeometry relative="1" as="geometry">
            <mxPoint x="190" y="678" as="sourcePoint" />
            <Array as="points">
              <mxPoint x="120" y="638" />
              <mxPoint x="120" y="668" />
            </Array>
          </mxGeometry>
        </mxCell>
        <mxCell id="-zgr26NCYD5-frDkxSR6-72" value="checkAndRunMaint.&lt;br&gt;IF state not ASK, return&lt;br&gt;IF OK all robots { &lt;br&gt;retry.interrupt, maintGranted }" style="html=1;align=left;spacingLeft=2;endArrow=block;rounded=0;edgeStyle=orthogonalEdgeStyle;curved=0;rounded=0;" edge="1" target="-zgr26NCYD5-frDkxSR6-71" parent="-zgr26NCYD5-frDkxSR6-38" source="-zgr26NCYD5-frDkxSR6-66">
          <mxGeometry relative="1" as="geometry">
            <mxPoint x="50" y="190" as="sourcePoint" />
            <Array as="points">
              <mxPoint x="80" y="160" />
              <mxPoint x="80" y="220" />
            </Array>
          </mxGeometry>
        </mxCell>
        <mxCell id="-zgr26NCYD5-frDkxSR6-106" value="" style="html=1;points=[];perimeter=orthogonalPerimeter;outlineConnect=0;targetShapes=umlLifeline;portConstraint=eastwest;newEdgeStyle={&quot;edgeStyle&quot;:&quot;elbowEdgeStyle&quot;,&quot;elbow&quot;:&quot;vertical&quot;,&quot;curved&quot;:0,&quot;rounded&quot;:0};" vertex="1" parent="-zgr26NCYD5-frDkxSR6-38">
          <mxGeometry x="45" y="838" width="10" height="80" as="geometry" />
        </mxCell>
        <mxCell id="-zgr26NCYD5-frDkxSR6-127" value="" style="html=1;points=[];perimeter=orthogonalPerimeter;outlineConnect=0;targetShapes=umlLifeline;portConstraint=eastwest;newEdgeStyle={&quot;edgeStyle&quot;:&quot;elbowEdgeStyle&quot;,&quot;elbow&quot;:&quot;vertical&quot;,&quot;curved&quot;:0,&quot;rounded&quot;:0};" vertex="1" parent="-zgr26NCYD5-frDkxSR6-38">
          <mxGeometry x="45" y="452" width="10" height="20" as="geometry" />
        </mxCell>
        <mxCell id="-zgr26NCYD5-frDkxSR6-128" value="" style="html=1;points=[];perimeter=orthogonalPerimeter;outlineConnect=0;targetShapes=umlLifeline;portConstraint=eastwest;newEdgeStyle={&quot;edgeStyle&quot;:&quot;elbowEdgeStyle&quot;,&quot;elbow&quot;:&quot;vertical&quot;,&quot;curved&quot;:0,&quot;rounded&quot;:0};" vertex="1" parent="-zgr26NCYD5-frDkxSR6-38">
          <mxGeometry x="45" y="482" width="10" height="30" as="geometry" />
        </mxCell>
        <mxCell id="-zgr26NCYD5-frDkxSR6-129" value="robotLeftNetwork&lt;br&gt;" style="html=1;align=left;spacingLeft=2;endArrow=block;rounded=0;edgeStyle=orthogonalEdgeStyle;curved=0;rounded=0;" edge="1" target="-zgr26NCYD5-frDkxSR6-128" parent="-zgr26NCYD5-frDkxSR6-38" source="-zgr26NCYD5-frDkxSR6-127">
          <mxGeometry relative="1" as="geometry">
            <mxPoint x="50" y="462" as="sourcePoint" />
            <Array as="points">
              <mxPoint x="80" y="452" />
              <mxPoint x="80" y="482" />
            </Array>
          </mxGeometry>
        </mxCell>
        <mxCell id="-zgr26NCYD5-frDkxSR6-133" value="" style="html=1;points=[];perimeter=orthogonalPerimeter;outlineConnect=0;targetShapes=umlLifeline;portConstraint=eastwest;newEdgeStyle={&quot;edgeStyle&quot;:&quot;elbowEdgeStyle&quot;,&quot;elbow&quot;:&quot;vertical&quot;,&quot;curved&quot;:0,&quot;rounded&quot;:0};" vertex="1" parent="-zgr26NCYD5-frDkxSR6-38">
          <mxGeometry x="45" y="522" width="10" height="20" as="geometry" />
        </mxCell>
        <mxCell id="-zgr26NCYD5-frDkxSR6-134" value="checkAndRunMaint." style="html=1;align=left;spacingLeft=2;endArrow=block;rounded=0;edgeStyle=orthogonalEdgeStyle;curved=0;rounded=0;" edge="1" target="-zgr26NCYD5-frDkxSR6-133" parent="-zgr26NCYD5-frDkxSR6-38" source="-zgr26NCYD5-frDkxSR6-128">
          <mxGeometry relative="1" as="geometry">
            <mxPoint x="50" y="482" as="sourcePoint" />
            <Array as="points">
              <mxPoint x="80" y="512" />
              <mxPoint x="80" y="532" />
            </Array>
          </mxGeometry>
        </mxCell>
        <mxCell id="-zgr26NCYD5-frDkxSR6-42" value=":RobotMaintenance" style="shape=umlLifeline;perimeter=lifelinePerimeter;whiteSpace=wrap;html=1;container=0;dropTarget=0;collapsible=0;recursiveResize=0;outlineConnect=0;portConstraint=eastwest;newEdgeStyle={&quot;edgeStyle&quot;:&quot;elbowEdgeStyle&quot;,&quot;elbow&quot;:&quot;vertical&quot;,&quot;curved&quot;:0,&quot;rounded&quot;:0};" vertex="1" parent="1">
          <mxGeometry x="570" y="540" width="120" height="1020" as="geometry" />
        </mxCell>
        <mxCell id="-zgr26NCYD5-frDkxSR6-61" value="" style="html=1;points=[];perimeter=orthogonalPerimeter;outlineConnect=0;targetShapes=umlLifeline;portConstraint=eastwest;newEdgeStyle={&quot;edgeStyle&quot;:&quot;elbowEdgeStyle&quot;,&quot;elbow&quot;:&quot;vertical&quot;,&quot;curved&quot;:0,&quot;rounded&quot;:0};" vertex="1" parent="-zgr26NCYD5-frDkxSR6-42">
          <mxGeometry x="55" y="80" width="10" height="90" as="geometry" />
        </mxCell>
        <mxCell id="-zgr26NCYD5-frDkxSR6-63" value="" style="html=1;points=[];perimeter=orthogonalPerimeter;outlineConnect=0;targetShapes=umlLifeline;portConstraint=eastwest;newEdgeStyle={&quot;edgeStyle&quot;:&quot;elbowEdgeStyle&quot;,&quot;elbow&quot;:&quot;vertical&quot;,&quot;curved&quot;:0,&quot;rounded&quot;:0};" vertex="1" parent="-zgr26NCYD5-frDkxSR6-42">
          <mxGeometry x="65" y="105" width="10" height="40" as="geometry" />
        </mxCell>
        <mxCell id="-zgr26NCYD5-frDkxSR6-64" value="goToMaintenance&lt;br&gt;IF state is ASK, return&lt;br&gt;state = ASK&lt;br&gt;setTimestamp" style="html=1;align=left;spacingLeft=2;endArrow=block;rounded=0;edgeStyle=orthogonalEdgeStyle;curved=0;rounded=0;" edge="1" target="-zgr26NCYD5-frDkxSR6-63" parent="-zgr26NCYD5-frDkxSR6-42" source="-zgr26NCYD5-frDkxSR6-61">
          <mxGeometry relative="1" as="geometry">
            <mxPoint x="70" y="100" as="sourcePoint" />
            <Array as="points">
              <mxPoint x="100" y="90" />
              <mxPoint x="100" y="120" />
            </Array>
          </mxGeometry>
        </mxCell>
        <mxCell id="-zgr26NCYD5-frDkxSR6-97" value="" style="html=1;points=[];perimeter=orthogonalPerimeter;outlineConnect=0;targetShapes=umlLifeline;portConstraint=eastwest;newEdgeStyle={&quot;edgeStyle&quot;:&quot;elbowEdgeStyle&quot;,&quot;elbow&quot;:&quot;vertical&quot;,&quot;curved&quot;:0,&quot;rounded&quot;:0};" vertex="1" parent="-zgr26NCYD5-frDkxSR6-42">
          <mxGeometry x="55" y="678" width="10" height="80" as="geometry" />
        </mxCell>
        <mxCell id="-zgr26NCYD5-frDkxSR6-85" value="response" style="html=1;verticalAlign=bottom;endArrow=open;dashed=1;endSize=8;edgeStyle=elbowEdgeStyle;elbow=vertical;curved=0;rounded=0;" edge="1" parent="-zgr26NCYD5-frDkxSR6-42" source="-zgr26NCYD5-frDkxSR6-83">
          <mxGeometry relative="1" as="geometry">
            <mxPoint x="-115" y="300" as="sourcePoint" />
            <mxPoint x="-490" y="420" as="targetPoint" />
            <Array as="points">
              <mxPoint x="-290" y="420" />
              <mxPoint x="-357" y="500" />
            </Array>
          </mxGeometry>
        </mxCell>
        <mxCell id="-zgr26NCYD5-frDkxSR6-89" value="createResponse ( OK )&lt;br&gt;// from&amp;nbsp;GRPCServiceImpl" style="html=1;verticalAlign=bottom;startArrow=oval;startFill=1;endArrow=block;startSize=8;edgeStyle=elbowEdgeStyle;elbow=vertical;curved=0;rounded=0;" edge="1" parent="-zgr26NCYD5-frDkxSR6-42" target="-zgr26NCYD5-frDkxSR6-90">
          <mxGeometry width="60" relative="1" as="geometry">
            <mxPoint x="-490" y="558" as="sourcePoint" />
            <mxPoint x="-90" y="558.5" as="targetPoint" />
            <Array as="points">
              <mxPoint x="-230" y="558.5" />
            </Array>
          </mxGeometry>
        </mxCell>
        <mxCell id="-zgr26NCYD5-frDkxSR6-95" value="response" style="html=1;verticalAlign=bottom;endArrow=open;dashed=1;endSize=8;edgeStyle=elbowEdgeStyle;elbow=vertical;curved=0;rounded=0;" edge="1" parent="-zgr26NCYD5-frDkxSR6-42" source="-zgr26NCYD5-frDkxSR6-93">
          <mxGeometry relative="1" as="geometry">
            <mxPoint x="-105" y="708" as="sourcePoint" />
            <mxPoint x="-520" y="728" as="targetPoint" />
            <Array as="points">
              <mxPoint x="-360" y="728" />
              <mxPoint x="-360" y="688" />
            </Array>
          </mxGeometry>
        </mxCell>
        <mxCell id="-zgr26NCYD5-frDkxSR6-46" value=":MaintenanceThread" style="shape=umlLifeline;perimeter=lifelinePerimeter;whiteSpace=wrap;html=1;container=0;dropTarget=0;collapsible=0;recursiveResize=0;outlineConnect=0;portConstraint=eastwest;newEdgeStyle={&quot;edgeStyle&quot;:&quot;elbowEdgeStyle&quot;,&quot;elbow&quot;:&quot;vertical&quot;,&quot;curved&quot;:0,&quot;rounded&quot;:0};" vertex="1" parent="1">
          <mxGeometry x="680" y="1118" width="120" height="290" as="geometry" />
        </mxCell>
        <mxCell id="-zgr26NCYD5-frDkxSR6-103" value="" style="html=1;points=[];perimeter=orthogonalPerimeter;outlineConnect=0;targetShapes=umlLifeline;portConstraint=eastwest;newEdgeStyle={&quot;edgeStyle&quot;:&quot;elbowEdgeStyle&quot;,&quot;elbow&quot;:&quot;vertical&quot;,&quot;curved&quot;:0,&quot;rounded&quot;:0};" vertex="1" parent="-zgr26NCYD5-frDkxSR6-46">
          <mxGeometry x="55" y="150" width="10" height="110" as="geometry" />
        </mxCell>
        <mxCell id="-zgr26NCYD5-frDkxSR6-51" value="MAINTENANCE" style="text;html=1;strokeColor=none;fillColor=none;align=center;verticalAlign=middle;whiteSpace=wrap;rounded=0;" vertex="1" parent="1">
          <mxGeometry y="500" width="120" height="30" as="geometry" />
        </mxCell>
        <mxCell id="-zgr26NCYD5-frDkxSR6-56" value=":RobotNetworkResources" style="shape=umlLifeline;perimeter=lifelinePerimeter;whiteSpace=wrap;html=1;container=0;dropTarget=0;collapsible=0;recursiveResize=0;outlineConnect=0;portConstraint=eastwest;newEdgeStyle={&quot;edgeStyle&quot;:&quot;elbowEdgeStyle&quot;,&quot;elbow&quot;:&quot;vertical&quot;,&quot;curved&quot;:0,&quot;rounded&quot;:0};" vertex="1" parent="1">
          <mxGeometry x="410" y="540" width="150" height="1010" as="geometry" />
        </mxCell>
        <mxCell id="-zgr26NCYD5-frDkxSR6-117" value="" style="html=1;points=[];perimeter=orthogonalPerimeter;outlineConnect=0;targetShapes=umlLifeline;portConstraint=eastwest;newEdgeStyle={&quot;edgeStyle&quot;:&quot;elbowEdgeStyle&quot;,&quot;elbow&quot;:&quot;vertical&quot;,&quot;curved&quot;:0,&quot;rounded&quot;:0};" vertex="1" parent="-zgr26NCYD5-frDkxSR6-56">
          <mxGeometry x="70" y="130" width="10" height="20" as="geometry" />
        </mxCell>
        <mxCell id="-zgr26NCYD5-frDkxSR6-110" value="" style="html=1;points=[];perimeter=orthogonalPerimeter;outlineConnect=0;targetShapes=umlLifeline;portConstraint=eastwest;newEdgeStyle={&quot;edgeStyle&quot;:&quot;elbowEdgeStyle&quot;,&quot;elbow&quot;:&quot;vertical&quot;,&quot;curved&quot;:0,&quot;rounded&quot;:0};" vertex="1" parent="-zgr26NCYD5-frDkxSR6-56">
          <mxGeometry x="70" y="390" width="10" height="20" as="geometry" />
        </mxCell>
        <mxCell id="-zgr26NCYD5-frDkxSR6-114" value="" style="html=1;points=[];perimeter=orthogonalPerimeter;outlineConnect=0;targetShapes=umlLifeline;portConstraint=eastwest;newEdgeStyle={&quot;edgeStyle&quot;:&quot;elbowEdgeStyle&quot;,&quot;elbow&quot;:&quot;vertical&quot;,&quot;curved&quot;:0,&quot;rounded&quot;:0};" vertex="1" parent="-zgr26NCYD5-frDkxSR6-56">
          <mxGeometry x="70" y="608" width="10" height="20" as="geometry" />
        </mxCell>
        <mxCell id="-zgr26NCYD5-frDkxSR6-123" value="" style="html=1;points=[];perimeter=orthogonalPerimeter;outlineConnect=0;targetShapes=umlLifeline;portConstraint=eastwest;newEdgeStyle={&quot;edgeStyle&quot;:&quot;elbowEdgeStyle&quot;,&quot;elbow&quot;:&quot;vertical&quot;,&quot;curved&quot;:0,&quot;rounded&quot;:0};" vertex="1" parent="-zgr26NCYD5-frDkxSR6-56">
          <mxGeometry x="70" y="848" width="10" height="10" as="geometry" />
        </mxCell>
        <mxCell id="-zgr26NCYD5-frDkxSR6-125" value="" style="html=1;points=[];perimeter=orthogonalPerimeter;outlineConnect=0;targetShapes=umlLifeline;portConstraint=eastwest;newEdgeStyle={&quot;edgeStyle&quot;:&quot;elbowEdgeStyle&quot;,&quot;elbow&quot;:&quot;vertical&quot;,&quot;curved&quot;:0,&quot;rounded&quot;:0};" vertex="1" parent="-zgr26NCYD5-frDkxSR6-56">
          <mxGeometry x="70" y="878" width="10" height="10" as="geometry" />
        </mxCell>
        <mxCell id="-zgr26NCYD5-frDkxSR6-132" value="" style="html=1;points=[];perimeter=orthogonalPerimeter;outlineConnect=0;targetShapes=umlLifeline;portConstraint=eastwest;newEdgeStyle={&quot;edgeStyle&quot;:&quot;elbowEdgeStyle&quot;,&quot;elbow&quot;:&quot;vertical&quot;,&quot;curved&quot;:0,&quot;rounded&quot;:0};" vertex="1" parent="-zgr26NCYD5-frDkxSR6-56">
          <mxGeometry x="70" y="492" width="10" height="20" as="geometry" />
        </mxCell>
        <mxCell id="-zgr26NCYD5-frDkxSR6-62" value="start Thread" style="html=1;verticalAlign=bottom;startArrow=circle;startFill=1;endArrow=open;startSize=6;endSize=8;edgeStyle=elbowEdgeStyle;elbow=vertical;curved=0;rounded=0;" edge="1" parent="1" target="-zgr26NCYD5-frDkxSR6-61">
          <mxGeometry width="80" relative="1" as="geometry">
            <mxPoint x="530" y="620" as="sourcePoint" />
            <mxPoint x="610" y="620" as="targetPoint" />
          </mxGeometry>
        </mxCell>
        <mxCell id="-zgr26NCYD5-frDkxSR6-65" value="askForMaintenance" style="html=1;verticalAlign=bottom;endArrow=block;edgeStyle=elbowEdgeStyle;elbow=vertical;curved=0;rounded=0;" edge="1" parent="1" source="-zgr26NCYD5-frDkxSR6-63" target="-zgr26NCYD5-frDkxSR6-66">
          <mxGeometry width="80" relative="1" as="geometry">
            <mxPoint x="410" y="590" as="sourcePoint" />
            <mxPoint x="490" y="590" as="targetPoint" />
            <Array as="points">
              <mxPoint x="490" y="650" />
            </Array>
          </mxGeometry>
        </mxCell>
        <mxCell id="-zgr26NCYD5-frDkxSR6-67" value="IF state not ASK, return&lt;br&gt;FOR all robots {&lt;br&gt;IF robot not ok&lt;br&gt;send ASK }&lt;br&gt;checkAndRunMaint.&lt;br&gt;start retry thread" style="text;html=1;align=center;verticalAlign=middle;resizable=0;points=[];autosize=1;strokeColor=none;fillColor=none;" vertex="1" parent="1">
          <mxGeometry x="85" y="600" width="150" height="100" as="geometry" />
        </mxCell>
        <mxCell id="-zgr26NCYD5-frDkxSR6-77" value="" style="endArrow=classic;html=1;rounded=0;entryX=1;entryY=0.16;entryDx=0;entryDy=0;entryPerimeter=0;" edge="1" parent="1" source="-zgr26NCYD5-frDkxSR6-66" target="-zgr26NCYD5-frDkxSR6-67">
          <mxGeometry width="50" height="50" relative="1" as="geometry">
            <mxPoint x="430" y="640" as="sourcePoint" />
            <mxPoint x="480" y="590" as="targetPoint" />
            <Array as="points">
              <mxPoint x="320" y="616" />
            </Array>
          </mxGeometry>
        </mxCell>
        <mxCell id="-zgr26NCYD5-frDkxSR6-78" value="sendGRPCMessage &lt;br&gt;( msg, id, port )" style="html=1;verticalAlign=bottom;endArrow=block;edgeStyle=elbowEdgeStyle;elbow=vertical;curved=0;rounded=0;" edge="1" parent="1" source="-zgr26NCYD5-frDkxSR6-66" target="-zgr26NCYD5-frDkxSR6-79">
          <mxGeometry width="80" relative="1" as="geometry">
            <mxPoint x="410" y="670" as="sourcePoint" />
            <mxPoint x="490" y="670" as="targetPoint" />
            <Array as="points">
              <mxPoint x="280" y="680" />
              <mxPoint x="290" y="690" />
            </Array>
          </mxGeometry>
        </mxCell>
        <mxCell id="-zgr26NCYD5-frDkxSR6-80" value="responseObserver {&lt;br&gt;onNext { createResponse(response) }&lt;br&gt;onError { sendAdmin, robotLeft }" style="text;html=1;align=center;verticalAlign=middle;resizable=0;points=[];autosize=1;strokeColor=none;fillColor=none;" vertex="1" parent="1">
          <mxGeometry x="40" y="700" width="220" height="60" as="geometry" />
        </mxCell>
        <mxCell id="-zgr26NCYD5-frDkxSR6-100" value="start" style="html=1;verticalAlign=bottom;endArrow=block;edgeStyle=elbowEdgeStyle;elbow=horizontal;curved=0;rounded=0;" edge="1" parent="1" source="-zgr26NCYD5-frDkxSR6-66" target="-zgr26NCYD5-frDkxSR6-101">
          <mxGeometry width="80" relative="1" as="geometry">
            <mxPoint x="370" y="850" as="sourcePoint" />
            <mxPoint x="450" y="850" as="targetPoint" />
            <Array as="points">
              <mxPoint x="310" y="820" />
              <mxPoint x="320" y="740" />
            </Array>
          </mxGeometry>
        </mxCell>
        <mxCell id="-zgr26NCYD5-frDkxSR6-107" value="send OK to all robots in queue" style="text;html=1;align=center;verticalAlign=middle;resizable=0;points=[];autosize=1;strokeColor=none;fillColor=none;" vertex="1" parent="1">
          <mxGeometry x="160" y="1393" width="180" height="30" as="geometry" />
        </mxCell>
        <mxCell id="-zgr26NCYD5-frDkxSR6-81" value="createResponse ( ASK )&lt;br&gt;// from&amp;nbsp;GRPCServiceImpl" style="html=1;verticalAlign=bottom;startArrow=oval;startFill=1;endArrow=block;startSize=8;edgeStyle=elbowEdgeStyle;elbow=vertical;curved=0;rounded=0;" edge="1" parent="1" target="-zgr26NCYD5-frDkxSR6-82">
          <mxGeometry x="0.0031" y="-5" width="60" relative="1" as="geometry">
            <mxPoint x="70" y="860" as="sourcePoint" />
            <mxPoint x="430" y="904.5" as="targetPoint" />
            <Array as="points" />
            <mxPoint x="1" as="offset" />
          </mxGeometry>
        </mxCell>
        <mxCell id="-zgr26NCYD5-frDkxSR6-109" value="addToQueue" style="html=1;verticalAlign=bottom;endArrow=block;edgeStyle=elbowEdgeStyle;elbow=vertical;curved=0;rounded=0;" edge="1" parent="1" source="-zgr26NCYD5-frDkxSR6-83" target="-zgr26NCYD5-frDkxSR6-110">
          <mxGeometry width="80" relative="1" as="geometry">
            <mxPoint x="320" y="970" as="sourcePoint" />
            <mxPoint x="400" y="970" as="targetPoint" />
            <Array as="points">
              <mxPoint x="420" y="950" />
            </Array>
          </mxGeometry>
        </mxCell>
        <mxCell id="-zgr26NCYD5-frDkxSR6-96" value="maintenanceGranted" style="html=1;verticalAlign=bottom;endArrow=block;edgeStyle=elbowEdgeStyle;elbow=vertical;curved=0;rounded=0;" edge="1" parent="1" source="-zgr26NCYD5-frDkxSR6-93" target="-zgr26NCYD5-frDkxSR6-97">
          <mxGeometry width="80" relative="1" as="geometry">
            <mxPoint x="375" y="1098" as="sourcePoint" />
            <mxPoint x="455" y="1098" as="targetPoint" />
            <Array as="points">
              <mxPoint x="490" y="1228" />
            </Array>
            <mxPoint as="offset" />
          </mxGeometry>
        </mxCell>
        <mxCell id="-zgr26NCYD5-frDkxSR6-113" value="addToOks" style="html=1;verticalAlign=bottom;endArrow=block;edgeStyle=elbowEdgeStyle;elbow=vertical;curved=0;rounded=0;" edge="1" parent="1" source="-zgr26NCYD5-frDkxSR6-92" target="-zgr26NCYD5-frDkxSR6-114">
          <mxGeometry x="0.008" width="80" relative="1" as="geometry">
            <mxPoint x="320" y="1088" as="sourcePoint" />
            <mxPoint x="400" y="1088" as="targetPoint" />
            <Array as="points">
              <mxPoint x="420" y="1158" />
            </Array>
            <mxPoint as="offset" />
          </mxGeometry>
        </mxCell>
        <mxCell id="-zgr26NCYD5-frDkxSR6-98" value="IF state is IN, return&lt;br&gt;state = IN&lt;br&gt;" style="text;html=1;align=center;verticalAlign=middle;resizable=0;points=[];autosize=1;strokeColor=none;fillColor=none;" vertex="1" parent="1">
          <mxGeometry x="645" y="1208" width="130" height="40" as="geometry" />
        </mxCell>
        <mxCell id="-zgr26NCYD5-frDkxSR6-104" value="after x seconds&lt;br&gt;state = OUT&lt;br&gt;IF disconnect req, disconnect" style="text;html=1;align=center;verticalAlign=middle;resizable=0;points=[];autosize=1;strokeColor=none;fillColor=none;" vertex="1" parent="1">
          <mxGeometry x="560" y="1298" width="180" height="60" as="geometry" />
        </mxCell>
        <mxCell id="-zgr26NCYD5-frDkxSR6-102" value="start" style="html=1;verticalAlign=bottom;endArrow=block;edgeStyle=elbowEdgeStyle;elbow=vertical;curved=0;rounded=0;" edge="1" parent="1" source="-zgr26NCYD5-frDkxSR6-97" target="-zgr26NCYD5-frDkxSR6-103">
          <mxGeometry width="80" relative="1" as="geometry">
            <mxPoint x="375" y="1218" as="sourcePoint" />
            <mxPoint x="455" y="1218" as="targetPoint" />
            <Array as="points">
              <mxPoint x="690" y="1268" />
            </Array>
            <mxPoint as="offset" />
          </mxGeometry>
        </mxCell>
        <mxCell id="-zgr26NCYD5-frDkxSR6-105" value="hasFinishedMaint." style="html=1;verticalAlign=bottom;endArrow=block;edgeStyle=elbowEdgeStyle;elbow=horizontal;curved=0;rounded=0;" edge="1" parent="1" source="-zgr26NCYD5-frDkxSR6-103" target="-zgr26NCYD5-frDkxSR6-106">
          <mxGeometry width="80" relative="1" as="geometry">
            <mxPoint x="375" y="1338" as="sourcePoint" />
            <mxPoint x="455" y="1338" as="targetPoint" />
            <Array as="points">
              <mxPoint x="570" y="1378" />
            </Array>
          </mxGeometry>
        </mxCell>
        <mxCell id="-zgr26NCYD5-frDkxSR6-116" value="isRobotOk" style="html=1;verticalAlign=bottom;endArrow=block;edgeStyle=elbowEdgeStyle;elbow=vertical;curved=0;rounded=0;" edge="1" parent="1" source="-zgr26NCYD5-frDkxSR6-66" target="-zgr26NCYD5-frDkxSR6-117">
          <mxGeometry width="80" relative="1" as="geometry">
            <mxPoint x="320" y="820" as="sourcePoint" />
            <mxPoint x="400" y="820" as="targetPoint" />
            <Array as="points">
              <mxPoint x="420" y="680" />
            </Array>
          </mxGeometry>
        </mxCell>
        <mxCell id="-zgr26NCYD5-frDkxSR6-120" value="interrupt" style="html=1;verticalAlign=bottom;endArrow=block;edgeStyle=elbowEdgeStyle;elbow=vertical;curved=0;rounded=0;" edge="1" parent="1" source="-zgr26NCYD5-frDkxSR6-93">
          <mxGeometry width="80" relative="1" as="geometry">
            <mxPoint x="420" y="1138" as="sourcePoint" />
            <mxPoint x="155" y="1213" as="targetPoint" />
          </mxGeometry>
        </mxCell>
        <mxCell id="-zgr26NCYD5-frDkxSR6-122" value="clearOks" style="html=1;verticalAlign=bottom;endArrow=block;edgeStyle=elbowEdgeStyle;elbow=vertical;curved=0;rounded=0;" edge="1" parent="1" source="-zgr26NCYD5-frDkxSR6-106" target="-zgr26NCYD5-frDkxSR6-123">
          <mxGeometry width="80" relative="1" as="geometry">
            <mxPoint x="280" y="1418" as="sourcePoint" />
            <mxPoint x="360" y="1418" as="targetPoint" />
            <Array as="points">
              <mxPoint x="420" y="1398" />
            </Array>
          </mxGeometry>
        </mxCell>
        <mxCell id="-zgr26NCYD5-frDkxSR6-124" value="readAndCleanQueue" style="html=1;verticalAlign=bottom;endArrow=block;edgeStyle=elbowEdgeStyle;elbow=vertical;curved=0;rounded=0;" edge="1" parent="1" source="-zgr26NCYD5-frDkxSR6-106" target="-zgr26NCYD5-frDkxSR6-125">
          <mxGeometry width="80" relative="1" as="geometry">
            <mxPoint x="280" y="1418" as="sourcePoint" />
            <mxPoint x="360" y="1418" as="targetPoint" />
            <Array as="points">
              <mxPoint x="420" y="1418" />
            </Array>
          </mxGeometry>
        </mxCell>
        <mxCell id="-zgr26NCYD5-frDkxSR6-126" value="createResponse ( LEAVING )&lt;br&gt;// from GRPCServiceImpl" style="html=1;verticalAlign=bottom;startArrow=oval;startFill=1;endArrow=block;startSize=8;edgeStyle=elbowEdgeStyle;elbow=vertical;curved=0;rounded=0;" edge="1" parent="1" target="-zgr26NCYD5-frDkxSR6-127">
          <mxGeometry x="0.0036" width="60" relative="1" as="geometry">
            <mxPoint x="70" y="992" as="sourcePoint" />
            <mxPoint x="500" y="992" as="targetPoint" />
            <mxPoint as="offset" />
          </mxGeometry>
        </mxCell>
        <mxCell id="-zgr26NCYD5-frDkxSR6-131" value="remove from robots, oks, queue" style="html=1;verticalAlign=bottom;endArrow=block;edgeStyle=elbowEdgeStyle;elbow=vertical;curved=0;rounded=0;" edge="1" parent="1" source="-zgr26NCYD5-frDkxSR6-128" target="-zgr26NCYD5-frDkxSR6-132">
          <mxGeometry width="80" relative="1" as="geometry">
            <mxPoint x="430" y="1032" as="sourcePoint" />
            <mxPoint x="510" y="1032" as="targetPoint" />
            <Array as="points" />
          </mxGeometry>
        </mxCell>
      </root>
    </mxGraphModel>
  </diagram>
</mxfile>
